<svg
   viewBox="0 0 18 18"
   width="18"
   height="18"
   version="1.1"
   xmlns="http://www.w3.org/2000/svg">
  <!--! Font Awesome Free 6.4.2 by @fontawesome - https://fontawesome.com License - https://fontawesome.com/license (Commercial License) Copyright 2023 Fonticons, Inc. -->
  <path
     d="m 15.435352,0.24785156 c 0.330468,-0.33046875 0.864843,-0.33046875 1.191796,0 l 1.125,1.12500004 c 0.330469,0.3304687 0.330469,0.8648437 0,1.1917968 l -3.058593,3.0585938 1.371093,1.3710937 c 0.242579,0.2425782 0.312891,0.6046875 0.182813,0.9210938 -0.130078,0.3164062 -0.439453,0.5203125 -0.780469,0.5203125 h -5.058984 c -0.4675783,0 -0.8437502,-0.3761719 -0.8437502,-0.84375 V 2.5330078 c 0,-0.3410156 0.2039063,-0.6503906 0.5203122,-0.7804687 0.316407,-0.1300782 0.678516,-0.059766 0.921094,0.1828125 l 1.371094,1.3710937 z M 2.5330078,9.5642578 h 5.0625 c 0.4675781,0 0.84375,0.3761719 0.84375,0.8437502 v 5.0625 c 0,0.341015 -0.2039062,0.65039 -0.5203125,0.780469 -0.3164062,0.130078 -0.6785156,0.05976 -0.9210937,-0.182813 L 5.6267578,14.69707 2.5681641,17.755664 c -0.3304688,0.330469 -0.8648438,0.330469 -1.1917969,0 l -1.12851564,-1.125 c -0.33046875,-0.330469 -0.33046875,-0.864844 0,-1.191797 L 3.3064453,12.380273 1.9353516,11.005664 C 1.6927734,10.763086 1.6224609,10.400977 1.7525391,10.08457 1.8826172,9.7681641 2.1919922,9.5642578 2.5330078,9.5642578 Z"/>
</svg>
